<svg viewBox="0 0 512 512" xmlns="http://www.w3.org/2000/svg"><rect height="512" rx="64" ry="64" width="512" fill="#7b519d"/><g fill="#fff" fill-rule="evenodd"><path d="M421.915 345.457c-12.198-9.82-25.233-18.634-38.064-27.638-25.59-17.974-48.995-19.37-68.09 9.545-10.723 16.234-25.734 16.945-41.43 9.823-43.27-19.62-76.683-49.85-96.255-93.83-8.658-19.458-8.544-36.903 11.713-50.665 10.725-7.278 21.53-15.89 20.666-31.793-1.128-20.736-51.475-90.033-71.357-97.347-8.227-3.027-16.42-2.83-24.79-.017-46.62 15.678-65.93 54.02-47.437 99.417 55.17 135.442 152.26 229.732 285.91 287.282 7.62 3.277 16.085 4.587 20.37 5.763 30.43.306 66.074-29.01 76.368-58.104 9.91-27.99-11.035-39.1-27.603-52.437zM272.06 77.44c97.707 15.024 142.768 61.484 155.21 159.894 1.154 9.09-2.232 22.768 10.737 23.02 13.554.26 10.288-13.217 10.402-22.316 1.145-92.684-79.67-178.606-173.525-181.774-7.08 1.02-21.733-4.883-22.647 10.988-.61 10.7 11.727 8.942 19.822 10.187z"/><path d="M291.172 104.422c-9.398-1.132-21.805-5.56-24 7.48-2.294 13.687 11.534 12.297 20.42 14.286 60.345 13.487 81.357 35.45 91.293 95.31 1.45 8.728-1.432 22.31 13.4 20.06 10.99-1.674 7.02-13.317 7.94-20.118.486-57.47-48.76-109.778-109.053-117.018z"/><path d="M296.713 151.416c-6.273.155-12.43.834-14.736 7.538-3.463 10.02 3.822 12.41 11.237 13.6 24.755 3.974 37.783 18.57 40.256 43.257.668 6.702 4.92 12.13 11.392 11.366 8.97-1.07 9.78-9.053 9.505-16.634.443-27.734-30.904-59.79-57.654-59.126z"/></g></svg>